<?xml version="1.0" encoding="UTF-8"?>
<svg width="88" height="185" viewBox="0.5 10.6 87.9 185" version="1.1" xmlns="http://www.w3.org/2000/svg" fill="currentColor">
   <path d="M0.78 12.01V194.23l19.27 1.41 19.26-1.41V12.01l-19.26-1.41z" stroke="currentColor" stroke-width="1" fill="none"/>

   <path d="M38.49 67v21.88l49.88 0.5c0.02-12.75-9.46-33.88-17.68-41.83-7.76-0.41-14.28-0.26-12.73 3.58 15.45 11.77-8.49 19.13-19.46 15.87z" stroke="currentColor" stroke-width="1"/>

   <rect x="36.7" y="56.08" width="9.29" height="102.5" ry="3.02" stroke="currentColor" stroke-width="1" fill="none"/>

   <path d="M0.58 32h38.9v3.87H0.58z M0.58 54.5h38.9v3.87H0.58z M0.58 144.5h38.9v3.87H0.58z M0.58 170h38.9v3.87H0.58z" />

   <path d="M39.28 56.28C26.74 81.04 21.41 85.48 0.49 133.82l0.08 12.73C12.86 119.77 25.7 94.52 39.4 71.71z" />
</svg>
